<svg width="32" height="32" viewBox="0 0 32 32" fill="none" xmlns="http://www.w3.org/2000/svg">
<path d="M24.2578 19.5H26.5C27.4661 19.5 28.291 19.1582 28.9746 18.4746C29.6582 17.791 30 16.9661 30 16C30 15.0339 29.6582 14.209 28.9746 13.5254C28.291 12.8418 27.4661 12.5 26.5 12.5H24.2305L25.5156 11.2422C26.1719 10.5677 26.5 9.77018 26.5 8.84961C26.5 7.92904 26.1673 7.13607 25.502 6.4707C24.8366 5.80534 24.0436 5.47266 23.123 5.47266C22.2025 5.47266 21.4141 5.80078 20.7578 6.45703L19.5 7.71484V5.5C19.5 4.53385 19.1582 3.70898 18.4746 3.02539C17.791 2.3418 16.9661 2 16 2C15.0339 2 14.209 2.3418 13.5254 3.02539C12.8418 3.70898 12.5 4.53385 12.5 5.5V7.74219L11.2422 6.48438C10.5859 5.82812 9.79297 5.5 8.86328 5.5C7.93359 5.5 7.14062 5.82812 6.48438 6.48438C5.82812 7.14062 5.5 7.93359 5.5 8.86328C5.5 9.79297 5.82812 10.5859 6.48438 11.2422L7.74219 12.5H5.5C4.53385 12.5 3.70898 12.8418 3.02539 13.5254C2.3418 14.209 2 15.0339 2 16C2 16.9661 2.3418 17.791 3.02539 18.4746C3.70898 19.1582 4.53385 19.5 5.5 19.5H7.71484L6.48438 20.7578C5.8099 21.4141 5.47266 22.2025 5.47266 23.123C5.47266 24.0436 5.80534 24.8366 6.4707 25.502C7.13607 26.1673 7.92904 26.5 8.84961 26.5C9.77018 26.5 10.5677 26.1719 11.2422 25.5156L12.5 24.2305V26.5C12.5 27.4661 12.8418 28.291 13.5254 28.9746C14.209 29.6582 15.0339 30 16 30C16.9661 30 17.791 29.6582 18.4746 28.9746C19.1582 28.291 19.5 27.4661 19.5 26.5V24.2578L20.7305 25.5156C21.4049 26.1719 22.2025 26.5 23.123 26.5C24.0436 26.5 24.8366 26.1673 25.502 25.502C26.1673 24.8366 26.5 24.0436 26.5 23.123C26.5 22.2025 26.1628 21.4141 25.4883 20.7578L24.2578 19.5Z" fill="#0B0B0B"/>
</svg>
