<svg width="32" height="32" viewBox="0 0 32 32" fill="none" xmlns="http://www.w3.org/2000/svg">
<path d="M25.5139 8.72277L20.4444 13.7822V28.0594C20.4444 28.5908 20.2535 29.047 19.8715 29.4282C19.4896 29.8094 19.0324 30 18.5 30C17.9676 30 17.5104 29.8094 17.1285 29.4282C16.7465 29.047 16.5556 28.5908 16.5556 28.0594V21.4059H15.4444V28.0594C15.4444 28.5908 15.2535 29.047 14.8715 29.4282C14.4896 29.8094 14.0324 30 13.5 30C12.9676 30 12.5104 29.8094 12.1285 29.4282C11.7465 29.047 11.5556 28.5908 11.5556 28.0594V13.7822L6.48611 8.72277C6.16204 8.39934 6 8.0066 6 7.54455C6 7.08251 6.16204 6.68977 6.48611 6.36634C6.82176 6.0429 7.21817 5.88119 7.67535 5.88119C8.13252 5.88119 8.52315 6.0429 8.84722 6.36634L12.8056 10.3168H19.1944L23.1528 6.36634C23.4769 6.0429 23.8704 5.88119 24.3333 5.88119C24.7963 5.88119 25.1898 6.0429 25.5139 6.36634C25.838 6.70132 26 7.09695 26 7.55322C26 8.00949 25.838 8.39934 25.5139 8.72277ZM19.8889 5.88119C19.8889 6.95545 19.5098 7.87087 18.7517 8.62748C17.9936 9.38408 17.0764 9.76238 16 9.76238C14.9236 9.76238 14.0064 9.38408 13.2483 8.62748C12.4902 7.87087 12.1111 6.95545 12.1111 5.88119C12.1111 4.80693 12.4902 3.8915 13.2483 3.1349C14.0064 2.3783 14.9236 2 16 2C17.0764 2 17.9936 2.3783 18.7517 3.1349C19.5098 3.8915 19.8889 4.80693 19.8889 5.88119Z" fill="#0B0B0B"/>
</svg>
