<svg width="32" height="32" viewBox="0 0 32 32" fill="none" xmlns="http://www.w3.org/2000/svg">
<path d="M23.0588 10.4948C23.0588 12.6685 22.3529 15.5667 18.9647 16.726C19.9529 14.2625 20.0941 11.799 19.3882 9.48043C18.4 6.43728 15.1529 4.1187 12.8941 2.81449C12.3294 2.37976 11.3412 2.95941 11.4824 3.82888C11.4824 5.4229 11.0588 7.74149 8.65882 10.205C5.55294 13.393 4 16.726 4 19.9141C4 24.1165 6.82353 29.3333 12.4706 29.3333C6.82353 23.5369 11.0588 18.4649 11.0588 18.4649C12.1882 27.0147 18.1176 29.3333 20.9412 29.3333C23.3412 29.3333 28 27.5944 28 20.059C28 15.5667 26.1647 12.0888 24.6118 10.0601C24.1882 9.33552 23.2 9.77025 23.0588 10.4948Z" fill="#0B0B0B"/>
</svg>
