<svg width="48" height="48" viewBox="0 0 48 48" fill="none" xmlns="http://www.w3.org/2000/svg">
<path d="M48 36.6154C48 38.0435 47.4381 39.4131 46.4379 40.4229C45.4377 41.4327 44.0812 42 42.6667 42H5.33333C3.91885 42 2.56229 41.4327 1.5621 40.4229C0.561903 39.4131 0 38.0435 0 36.6154V12.3846C0 10.9565 0.561903 9.58693 1.5621 8.57712C2.56229 7.56731 3.91885 7 5.33333 7H42.6667C44.0812 7 45.4377 7.56731 46.4379 8.57712C47.4381 9.58693 48 10.9565 48 12.3846V36.6154Z" fill="#CE1126"/>
<path d="M42.6667 7H5.33333C3.91885 7 2.56229 7.56731 1.5621 8.57712C0.561903 9.58693 0 10.9565 0 12.3846L0 24.5H48V12.3846C48 10.9565 47.4381 9.58693 46.4379 8.57712C45.4377 7.56731 44.0812 7 42.6667 7Z" fill="#0038A8"/>
<path d="M1.75067 40.5798L25.3747 24.5861L1.77333 8.40134C1.21695 8.90206 0.771425 9.51564 0.465857 10.202C0.16029 10.8884 0.00154925 11.6321 0 12.3846L0 36.6154C0 38.1917 0.682667 39.5958 1.75067 40.5798Z" fill="white"/>
<path d="M21.4266 22.5077L21.4839 24.0598L22.9706 24.4555L21.5266 24.9886L21.6132 26.5394L20.6639 25.3171L19.2306 25.8784L20.0879 24.5901L19.1146 23.388L20.5946 23.8134L21.4266 22.5077ZM2.13724 11.0142L3.29191 12.0413L4.59858 11.2242L3.98791 12.6498L5.16124 13.6527L3.63058 13.5073L3.04791 14.9423L2.71324 13.4278L1.17858 13.3121L2.50258 12.5232L2.13724 11.0142ZM2.71191 34.1855L3.47724 35.5317L4.97591 35.1857L3.94391 36.3353L4.73591 37.6667L3.33324 37.0313L2.32391 38.2038L2.48791 36.6584L1.07324 36.0527L2.57724 35.7323L2.71191 34.1855ZM13.3332 24.5C13.3332 25.0303 13.2298 25.5554 13.0288 26.0454C12.8277 26.5354 12.5331 26.9806 12.1617 27.3556C11.7902 27.7306 11.3493 28.0281 10.864 28.231C10.3787 28.434 9.85853 28.5384 9.33324 28.5384C8.80795 28.5384 8.28781 28.434 7.80251 28.231C7.31721 28.0281 6.87625 27.7306 6.50482 27.3556C6.13338 26.9806 5.83874 26.5354 5.63772 26.0454C5.43671 25.5554 5.33324 25.0303 5.33324 24.5C5.33324 23.4289 5.75467 22.4017 6.50482 21.6443C7.25496 20.887 8.27238 20.4615 9.33324 20.4615C10.3941 20.4615 11.4115 20.887 12.1617 21.6443C12.9118 22.4017 13.3332 23.4289 13.3332 24.5Z" fill="#FCD116"/>
<path d="M10.1268 17.2267L9.91742 20.7913L9.59208 20.7428L9.70542 16.6048L9.33342 16.3598L8.96142 16.6048L9.07475 20.7428L8.74942 20.7913L8.54009 17.2267L8.06942 17.5202L8.50809 21.1507H10.1588L10.5974 17.5202L10.1268 17.2267ZM8.54009 31.7732L8.74942 28.2086L9.07475 28.2571L8.96008 32.3952L9.33342 32.6402L9.70542 32.3952L9.59208 28.2571L9.91742 28.2086L10.1268 31.7732L10.5974 31.4798L10.1588 27.8478H8.50809L8.06942 31.4798L8.54009 31.7732ZM3.67742 29.0755L6.32409 26.7077L6.51875 26.9715L3.54142 29.8159L3.63209 30.2561L4.06809 30.349L6.88542 27.3403L7.14809 27.5382L4.80009 30.2103L5.33875 30.3369L7.57209 27.4575L6.98809 26.8678L6.40409 26.2782L3.55209 28.533L3.67742 29.0755ZM14.9894 19.923L12.3428 22.2936L12.1481 22.0284L15.1254 19.184L15.0348 18.7438L14.5988 18.6509L11.7814 21.6582L11.5188 21.4617L13.8668 18.7896L13.3281 18.663L11.0948 21.5425L11.6788 22.1321L12.2628 22.7217L15.1148 20.4669L14.9894 19.923ZM2.12942 23.699L5.66142 23.9103L5.61209 24.2388L1.51342 24.123L1.27075 24.5L1.51342 24.8755L5.61209 24.7611L5.66142 25.0896L2.12942 25.3009L2.42009 25.7761L6.01609 25.3332V23.6653L2.42009 23.2238L2.12942 23.699ZM16.5374 25.3009L13.0054 25.0896L13.0548 24.7611L17.1534 24.8755L17.3961 24.5L17.1534 24.123L13.0548 24.2388L13.0054 23.9103L16.5374 23.699L16.2468 23.2238L12.6494 23.6653V25.3332L16.2468 25.7761L16.5374 25.3009ZM4.80009 18.7896L7.14809 21.4617L6.88542 21.6582L4.06809 18.6509L3.63209 18.7438L3.54142 19.184L6.51875 22.0284L6.32409 22.2936L3.67742 19.923L3.55209 20.4669L6.40409 22.7217L6.98809 22.1321L7.57209 21.5425L5.33875 18.663L4.80009 18.7896ZM13.8668 30.2103L11.5188 27.5382L11.7814 27.3403L14.5988 30.349L15.0348 30.2561L15.1254 29.8159L12.1481 26.9715L12.3428 26.7077L14.9894 29.0755L15.1148 28.533L12.2628 26.2782L11.6788 26.8678L11.0948 27.4575L13.3281 30.3369L13.8668 30.2103Z" fill="#FCD116"/>
<rect x="0.5" y="7.5" width="47" height="34" rx="4.5" stroke="#EAEAEA"/>
</svg>
