<svg width="48" height="48" viewBox="0 0 48 48" fill="none" xmlns="http://www.w3.org/2000/svg">
<path d="M48 36.6154C48 38.0435 47.4381 39.4131 46.4379 40.4229C45.4377 41.4327 44.0812 42 42.6667 42H5.33333C3.91885 42 2.56229 41.4327 1.5621 40.4229C0.561903 39.4131 0 38.0435 0 36.6154V12.3846C0 10.9565 0.561903 9.58693 1.5621 8.57712C2.56229 7.56731 3.91885 7 5.33333 7H42.6667C44.0812 7 45.4377 7.56731 46.4379 8.57712C47.4381 9.58693 48 10.9565 48 12.3846V36.6154Z" fill="white"/>
<path d="M28.5879 17.8836C26.8499 16.6552 24.6997 16.1741 22.6103 16.5462C20.5209 16.9183 18.6635 18.1131 17.4466 19.8679C16.872 20.7461 16.6596 21.816 16.8545 22.85C17.0495 23.8839 17.6364 24.8002 18.4904 25.4039C19.3445 26.0075 20.3981 26.2508 21.4271 26.082C22.4561 25.9132 23.3792 25.3456 23.9999 24.5C24.3013 24.0655 24.6844 23.6953 25.1275 23.4103C25.5706 23.1254 26.0649 22.9314 26.5822 22.8393C27.0996 22.7472 27.6298 22.7589 28.1427 22.8738C28.6555 22.9886 29.141 23.2043 29.5713 23.5085C30.0016 23.8128 30.3683 24.1996 30.6505 24.6469C30.9328 25.0942 31.125 25.5933 31.2161 26.1156C31.3073 26.638 31.2957 27.1733 31.182 27.6911C31.0683 28.2089 30.8546 28.699 30.5533 29.1334C31.156 28.2645 31.5832 27.2842 31.8106 26.2486C32.038 25.2129 32.0611 24.1422 31.8786 23.0975C31.6961 22.0529 31.3116 21.0547 30.747 20.1601C30.1823 19.2655 29.4487 18.492 28.5879 17.8836Z" fill="#C60C30"/>
<path d="M29.5706 23.5092C28.7017 22.8948 27.6267 22.6541 26.582 22.8399C25.5374 23.0257 24.6086 23.6228 23.9999 24.4999C23.3807 25.35 22.4566 25.9217 21.4253 26.0927C20.394 26.2638 19.3373 26.0207 18.4813 25.4155C17.6252 24.8102 17.0376 23.8907 16.8443 22.8538C16.6509 21.8168 16.8671 20.7446 17.4466 19.8665C16.8263 20.7345 16.3831 21.7182 16.1427 22.7607C15.9023 23.8031 15.8695 24.8833 16.0463 25.9386C16.223 26.994 16.6057 28.0033 17.1721 28.908C17.7386 29.8127 18.4775 30.5947 19.3459 31.2086C20.2143 31.8224 21.1949 32.2559 22.2306 32.4839C23.2664 32.7118 24.3367 32.7296 25.3794 32.5363C26.4221 32.343 27.4163 31.9423 28.3042 31.3577C29.1922 30.7731 29.9562 30.0161 30.5519 29.1307C30.8533 28.6966 31.067 28.2068 31.1808 27.6893C31.2947 27.1718 31.3063 26.6367 31.2152 26.1146C31.124 25.5925 30.9319 25.0937 30.6497 24.6467C30.3675 24.1996 30.0008 23.8131 29.5706 23.5092Z" fill="#003478"/>
<path d="M32.4454 34.6931L35.0161 31.5996L36.0374 32.4652L33.4668 35.5586L32.4454 34.6931ZM35.8721 30.5698L38.4428 27.4777L39.4641 28.3432L36.8934 31.4354L35.8721 30.5698ZM34.4881 36.4269L37.0588 33.3348L38.0801 34.2004L35.5094 37.2925L34.4881 36.4269ZM37.9174 32.2996L40.4908 29.2075L41.5121 30.0744L38.9388 33.1652L37.9174 32.2996ZM36.5294 38.1581L39.1028 35.0659L40.1228 35.9315L37.5508 39.0236L36.5294 38.1581ZM39.9574 34.0321L42.5268 30.9359L43.5494 31.8015L40.9801 34.8977L39.9574 34.0321ZM39.9628 14.9679L40.9841 14.1023L43.5574 17.1971L42.5348 18.0627L39.9628 14.9679ZM36.5334 10.8406L37.5548 9.97498L40.1254 13.0698L39.1028 13.934L36.5334 10.8406ZM34.4894 12.5744L35.5108 11.7088L41.5108 18.9269L40.4894 19.7925L34.4894 12.5744ZM32.4468 14.3029L33.4694 13.4373L36.0388 16.5307L35.0174 17.395L32.4468 14.3029ZM35.8734 18.4288L36.8948 17.5632L39.4681 20.6554L38.4481 21.5209L35.8734 18.4288ZM8.53344 28.3419L9.55478 27.4763L15.5534 34.6957L14.5308 35.5613L8.53344 28.3419ZM6.49344 30.073L7.51344 29.2088L10.0854 32.3023L9.06278 33.1679L6.49344 30.073ZM9.91611 34.2004L10.9374 33.3348L13.5108 36.4269L12.4894 37.2925L9.91611 34.2004ZM4.44811 31.8029L5.46944 30.9373L11.4694 38.1554L10.4468 39.0209L4.44811 31.8029ZM4.44678 17.1944L10.4441 9.97632L11.4668 10.8406L5.46678 18.06L4.44678 17.1944ZM6.48944 18.9269L12.4894 11.7075L13.5108 12.5731L7.51078 19.7911L6.48944 18.9269ZM8.53344 20.6567L14.5334 13.4373L15.5548 14.3029L9.55478 21.5223L8.53344 20.6567Z" fill="#292F33"/>
<rect x="0.5" y="7.5" width="47" height="34" rx="4.5" stroke="#EAEAEA"/>
</svg>
