<svg width="48" height="48" viewBox="0 0 48 48" fill="none" xmlns="http://www.w3.org/2000/svg">
<path d="M48 36.6154C48 38.0435 47.4381 39.4131 46.4379 40.4229C45.4377 41.4327 44.0812 42 42.6667 42H5.33333C3.91885 42 2.56229 41.4327 1.5621 40.4229C0.561903 39.4131 0 38.0435 0 36.6154V12.3846C0 10.9565 0.561903 9.58693 1.5621 8.57712C2.56229 7.56731 3.91885 7 5.33333 7H42.6667C44.0812 7 45.4377 7.56731 46.4379 8.57712C47.4381 9.58693 48 10.9565 48 12.3846V36.6154Z" fill="white"/>
<path d="M24.0001 33.9231C29.1547 33.9231 33.3334 29.7042 33.3334 24.5C33.3334 19.2958 29.1547 15.0769 24.0001 15.0769C18.8454 15.0769 14.6667 19.2958 14.6667 24.5C14.6667 29.7042 18.8454 33.9231 24.0001 33.9231Z" fill="#ED1B2F"/>
<rect x="0.5" y="7.5" width="47" height="34" rx="4.5" stroke="#EAEAEA"/>
</svg>
