<svg width="48" height="48" viewBox="0 0 48 48" fill="none" xmlns="http://www.w3.org/2000/svg">
<path d="M42.6667 7H22.6667V24.5H0V36.6154C0 38.0435 0.561903 39.4131 1.5621 40.4229C2.56229 41.4327 3.91885 42 5.33333 42H42.6667C44.0812 42 45.4377 41.4327 46.4379 40.4229C47.4381 39.4131 48 38.0435 48 36.6154V12.3846C48 10.9565 47.4381 9.58693 46.4379 8.57712C45.4377 7.56731 44.0812 7 42.6667 7Z" fill="#FE0000"/>
<path d="M22.6667 7H5.33333C3.91885 7 2.56229 7.56731 1.5621 8.57712C0.561903 9.58693 0 10.9565 0 12.3846L0 24.5H22.6667V7ZM14.5827 13.2058L17.296 12.4681L15.308 14.4698C15.1477 14.0059 14.9016 13.5769 14.5827 13.2058ZM14.9173 15.75C14.9173 16.181 14.8333 16.6078 14.6699 17.0059C14.5065 17.4041 14.2671 17.7659 13.9652 18.0707C13.6634 18.3754 13.305 18.6172 12.9106 18.7821C12.5163 18.947 12.0935 19.0319 11.6667 19.0319C11.2398 19.0319 10.8171 18.947 10.4227 18.7821C10.0283 18.6172 9.66995 18.3754 9.3681 18.0707C9.06625 17.7659 8.8268 17.4041 8.66344 17.0059C8.50008 16.6078 8.416 16.181 8.416 15.75C8.416 14.8796 8.75848 14.0448 9.3681 13.4293C9.97772 12.8138 10.8045 12.4681 11.6667 12.4681C12.5288 12.4681 13.3556 12.8138 13.9652 13.4293C14.5749 14.0448 14.9173 14.8796 14.9173 15.75ZM14.9173 10.0665L14.1867 12.806C13.8192 12.4837 13.3943 12.2352 12.9347 12.0737L14.9173 10.0665ZM11.6667 9.1875L12.3893 11.9256C12.156 11.8812 11.9133 11.8556 11.6667 11.8556C11.42 11.8556 11.1773 11.8812 10.944 11.9256L11.6667 9.1875ZM10.3987 12.0737C9.93915 12.2355 9.51429 12.484 9.14667 12.806L8.416 10.0665L10.3987 12.0737ZM8.75067 13.2058C8.4315 13.5767 8.18532 14.0057 8.02533 14.4698L6.03733 12.4681L8.75067 13.2058ZM7.87867 15.0204C7.78633 15.5023 7.78633 15.9977 7.87867 16.4796L5.16667 15.75L7.87867 15.0204ZM8.02533 17.0288C8.18667 17.4973 8.436 17.9254 8.75067 18.2929L6.03733 19.0306L8.02533 17.0288ZM8.416 21.4335L9.14667 18.694C9.51067 19.0117 9.93467 19.2635 10.3987 19.4263L8.416 21.4335ZM11.6667 22.3125L10.944 19.5744C11.4214 19.6676 11.912 19.6676 12.3893 19.5744L11.6667 22.3125ZM12.9347 19.4263C13.3987 19.2635 13.8227 19.0117 14.1867 18.694L14.9173 21.4335L12.9347 19.4263ZM14.5827 18.2942C14.8987 17.9267 15.1467 17.4987 15.308 17.0302L17.296 19.0319L14.5827 18.2942ZM15.4547 16.4796C15.547 15.9977 15.547 15.5023 15.4547 15.0204L18.1667 15.75L15.4547 16.4796Z" fill="#000095"/>
<path d="M12.3894 11.9255L11.6667 9.18747L10.9441 11.9255C11.1774 11.8811 11.4201 11.8555 11.6667 11.8555C11.9134 11.8555 12.1561 11.8811 12.3894 11.9255ZM7.80941 15.75C7.80941 15.5009 7.83341 15.2559 7.87875 15.0204L5.16675 15.75L7.87875 16.4796C7.83326 16.2391 7.81004 15.9948 7.80941 15.75ZM10.9441 19.5744L11.6667 22.3125L12.3894 19.5744C11.9121 19.6676 11.4214 19.6676 10.9441 19.5744ZM15.5241 15.75C15.5241 15.999 15.5001 16.244 15.4547 16.4796L18.1667 15.75L15.4547 15.0204C15.4987 15.2559 15.5241 15.5009 15.5241 15.75ZM14.9174 10.0665L12.9347 12.0736C13.3987 12.2379 13.8227 12.4882 14.1867 12.8059L14.9174 10.0665ZM14.5827 18.2942L17.2961 19.0319L15.3081 17.0302C15.1478 17.4941 14.9017 17.923 14.5827 18.2942ZM8.41608 21.4334L10.3987 19.4263C9.93934 19.2642 9.51452 19.0158 9.14675 18.694L8.41608 21.4334ZM8.75075 13.2057L6.03741 12.468L8.02541 14.4698C8.18675 14.0013 8.43475 13.5746 8.75075 13.2057ZM12.9347 19.4263L14.9174 21.4334L14.1867 18.694C13.8191 19.016 13.3943 19.2645 12.9347 19.4263ZM8.02541 17.0288L6.03741 19.0305L8.75075 18.2929C8.43128 17.9221 8.18507 17.493 8.02541 17.0288ZM10.3987 12.0736L8.41608 10.0665L9.14675 12.8059C9.51208 12.4869 9.93475 12.2365 10.3987 12.0736ZM17.2961 12.468L14.5827 13.2057C14.8987 13.5732 15.1467 14.0013 15.3081 14.4698L17.2961 12.468Z" fill="white"/>
<path d="M11.6667 19.0319C13.462 19.0319 14.9173 17.5625 14.9173 15.7499C14.9173 13.9374 13.462 12.468 11.6667 12.468C9.87139 12.468 8.41602 13.9374 8.41602 15.7499C8.41602 17.5625 9.87139 19.0319 11.6667 19.0319Z" fill="white"/>
<rect x="0.5" y="7.5" width="47" height="34" rx="4.5" stroke="#EAEAEA"/>
</svg>
