<svg width="32" height="32" viewBox="0 0 32 32" fill="none" xmlns="http://www.w3.org/2000/svg">
<path d="M15.6765 13.6433L11.131 18.1744C10.7407 18.5634 10.1093 18.5634 9.71903 18.1744L5.1735 13.6433C4.13545 12.6073 3.42863 11.2875 3.14242 9.85077C2.85621 8.41405 3.00345 6.92492 3.56553 5.57167C4.12761 4.21842 5.0793 3.06181 6.30026 2.24807C7.52122 1.43433 8.95662 1 10.425 1C11.8934 1 13.3288 1.43433 14.5497 2.24807C15.7707 3.06181 16.7224 4.21842 17.2845 5.57167C17.8466 6.92492 17.9938 8.41405 17.7076 9.85077C17.4214 11.2875 16.7146 12.6073 15.6765 13.6433ZM10.425 11.098C11.1411 11.098 11.8278 10.8142 12.3342 10.3091C12.8405 9.804 13.125 9.11891 13.125 8.40456C13.125 7.69021 12.8405 7.00512 12.3342 6.49999C11.8278 5.99487 11.1411 5.7111 10.425 5.7111C9.70892 5.7111 9.02216 5.99487 8.51581 6.49999C8.00947 7.00512 7.725 7.69021 7.725 8.40456C7.725 9.11891 8.00947 9.804 8.51581 10.3091C9.02216 10.8142 9.70892 11.098 10.425 11.098ZM27.8265 25.7639L23.2812 30.2959C22.8908 30.6851 22.2592 30.685 21.8689 30.2958L17.3235 25.7626C16.2854 24.7265 15.5786 23.4067 15.2924 21.97C15.0062 20.5333 15.1534 19.0441 15.7155 17.6909C16.2776 16.3376 17.2293 15.181 18.4503 14.3673C19.6712 13.5536 21.1066 13.1192 22.575 13.1192C24.0434 13.1192 25.4788 13.5536 26.6997 14.3673C27.9207 15.181 28.8724 16.3376 29.4345 17.6909C29.9966 19.0441 30.1438 20.5333 29.8576 21.97C29.5714 23.4067 28.8646 24.7279 27.8265 25.7639ZM22.575 23.2186C23.2911 23.2186 23.9778 22.9348 24.4842 22.4297C24.9905 21.9246 25.275 21.2395 25.275 20.5251C25.275 19.8108 24.9905 19.1257 24.4842 18.6206C23.9778 18.1154 23.2911 17.8317 22.575 17.8317C21.8589 17.8317 21.1722 18.1154 20.6658 18.6206C20.1595 19.1257 19.875 19.8108 19.875 20.5251C19.875 21.2395 20.1595 21.9246 20.6658 22.4297C21.1722 22.9348 21.8589 23.2186 22.575 23.2186Z" fill="#0B0B0B"/>
</svg>
