<svg width="32" height="32" viewBox="0 0 32 32" fill="none" xmlns="http://www.w3.org/2000/svg">
<path d="M24.5606 11.3333C23.7661 11.3333 23.1212 11.9867 23.1212 12.7917V19.5H22.5455C20.6455 19.5 19.0909 21.075 19.0909 23H17.9394C17.9394 20.62 19.7012 18.66 21.9697 18.3683V5.79167C21.9697 5.40489 21.818 5.03396 21.5481 4.76047C21.2782 4.48698 20.9121 4.33333 20.5303 4.33333C20.1486 4.33333 19.7824 4.48698 19.5125 4.76047C19.2426 5.03396 19.0909 5.40489 19.0909 5.79167V14.8333H17.9394V3.45833C17.9394 3.07156 17.7877 2.70063 17.5178 2.42714C17.2479 2.15365 16.8818 2 16.5 2C16.1182 2 15.7521 2.15365 15.4822 2.42714C15.2123 2.70063 15.0606 3.07156 15.0606 3.45833V14.8333H13.9091V5.20833C13.9091 4.82156 13.7574 4.45063 13.4875 4.17714C13.2176 3.90365 12.8514 3.75 12.4697 3.75C12.0879 3.75 11.7218 3.90365 11.4519 4.17714C11.182 4.45063 11.0303 4.82156 11.0303 5.20833V16H9.87879V8.70833C9.87879 8.32156 9.72714 7.95063 9.4572 7.67714C9.18726 7.40365 8.82114 7.25 8.43939 7.25C8.05764 7.25 7.69153 7.40365 7.42159 7.67714C7.15165 7.95063 7 8.32156 7 8.70833V20.375C7 25.695 11.2491 30 16.5 30C21.7509 30 26 25.695 26 20.375V12.7917C26 11.9867 25.3552 11.3333 24.5606 11.3333Z" fill="#0B0B0B"/>
</svg>
