<svg width="48" height="48" viewBox="0 0 48 48" fill="none" xmlns="http://www.w3.org/2000/svg">
<path d="M0 35.9666V36.6154C0 38.0435 0.561903 39.4131 1.5621 40.4229C2.56229 41.4327 3.91885 42 5.33333 42H42.6667C44.0812 42 45.4377 41.4327 46.4379 40.4229C47.4381 39.4131 48 38.0435 48 36.6154V35.9666H0Z" fill="#A7122D"/>
<path d="M0 30.1282H48V36.1657H0V30.1282Z" fill="white"/>
<path d="M0 18.4598H48V30.3342H0V18.4598Z" fill="#292648"/>
<path d="M0 12.6282H48V18.6657H0V12.6282Z" fill="white"/>
<path d="M0 12.8329V12.3846C0 10.9565 0.561903 9.58693 1.5621 8.57712C2.56229 7.56731 3.91885 7 5.33333 7H42.6667C44.0812 7 45.4377 7.56731 46.4379 8.57712C47.4381 9.58693 48 10.9565 48 12.3846V12.8329H0Z" fill="#A7122D"/>
<rect x="0.5" y="7.5" width="47" height="34" rx="4.5" stroke="#EAEAEA"/>
</svg>
