<svg width="48" height="48" viewBox="0 0 48 48" fill="none" xmlns="http://www.w3.org/2000/svg">
<path d="M48 36.6154C48 38.0435 47.4381 39.4131 46.4379 40.4229C45.4377 41.4327 44.0812 42 42.6667 42H5.33333C3.91885 42 2.56229 41.4327 1.5621 40.4229C0.561903 39.4131 0 38.0435 0 36.6154V12.3846C0 10.9565 0.561903 9.58693 1.5621 8.57712C2.56229 7.56731 3.91885 7 5.33333 7H42.6667C44.0812 7 45.4377 7.56731 46.4379 8.57712C47.4381 9.58693 48 10.9565 48 12.3846V36.6154Z" fill="#75AADB"/>
<path d="M0 17.7692H48V31.2307H0V17.7692Z" fill="white"/>
<path d="M23.9999 17.7692L24.6506 21.1992L26.5519 18.2821L25.8519 21.7013L28.7133 19.74L26.7706 22.6302L30.1586 21.9248L27.2693 23.843L30.6666 24.5L27.2693 25.1569L30.1586 27.0765L26.7706 26.3698L28.7133 29.2586L25.8519 27.2973L26.5519 30.7178L24.6506 27.8007L23.9999 31.2307L23.3493 27.8007L21.4493 30.7178L22.1479 27.2973L19.2853 29.2586L21.2279 26.3698L17.8413 27.0765L20.7306 25.1569L17.3333 24.5L20.7306 23.843L17.8413 21.9248L21.2279 22.6302L19.2853 19.74L22.1479 21.7013L21.4493 18.2821L23.3493 21.1992L23.9999 17.7692Z" fill="#FCBF49"/>
<path d="M23.9999 19.5596L24.3226 21.2625L24.4773 22.0769L24.9293 21.385L25.8733 19.9365L25.5253 21.634L25.3586 22.4471L26.0386 21.9813L27.4599 21.008L26.4959 22.443L26.0346 23.1296L26.8386 22.9613L28.5213 22.6113L27.0866 23.5644L26.3999 24.018L27.2066 24.1742L28.8933 24.5L27.2066 24.8257L26.3999 24.9819L27.0852 25.4382L28.5199 26.3913L26.8373 26.04L26.0319 25.8717L26.4933 26.5582L27.4573 27.9919L26.0373 27.0186L25.3573 26.5528L25.5239 27.3659L25.8719 29.0648L24.9279 27.6163L24.4773 26.923L24.3226 27.7375L23.9999 29.4403L23.6773 27.7375L23.5226 26.923L23.0706 27.6163L22.1266 29.0648L22.4733 27.3659L22.6399 26.5542L21.9599 27.02L20.5386 27.9932L21.5026 26.5582L21.9639 25.8717L21.1586 26.04L19.4773 26.3913L20.9119 25.4382L21.5973 24.9819L20.7906 24.8257L19.1066 24.5L20.7933 24.1742L21.5999 24.018L20.9133 23.5617L19.4786 22.6086L21.1599 22.9586L21.9639 23.1269L21.5026 22.4403L20.5373 21.0053L21.9586 21.98L22.6386 22.4457L22.4719 21.634L22.1253 19.9365L23.0693 21.385L23.5213 22.0782L23.6759 21.2638L23.9999 19.5596ZM23.9999 17.7692L23.3493 21.1992L21.4493 18.2821L22.1479 21.7027L19.2853 19.7413L21.2279 22.6315L17.8413 21.9261L20.7306 23.8444L17.3333 24.5L20.7306 25.1569L17.8413 27.0765L21.2279 26.3698L19.2853 29.2586L22.1479 27.2973L21.4493 30.7178L23.3493 27.8007L23.9999 31.2307L24.6506 27.8007L26.5519 30.7178L25.8519 27.2973L28.7133 29.2586L26.7706 26.3698L30.1586 27.0765L27.2693 25.1569L30.6666 24.5L27.2693 23.843L30.1586 21.9248L26.7706 22.6302L28.7133 19.74L25.8519 21.7013L26.5519 18.2807L24.6506 21.1978L23.9999 17.7692Z" fill="#843511"/>
<path d="M23.9999 27.1923C25.4727 27.1923 26.6666 25.9869 26.6666 24.5C26.6666 23.013 25.4727 21.8076 23.9999 21.8076C22.5272 21.8076 21.3333 23.013 21.3333 24.5C21.3333 25.9869 22.5272 27.1923 23.9999 27.1923Z" fill="#FCBF49"/>
<path d="M24.0001 27.3606C22.4374 27.3606 21.1667 26.0777 21.1667 24.5C21.1667 22.9223 22.4374 21.6394 24.0001 21.6394C25.5627 21.6394 26.8334 22.9223 26.8334 24.5C26.8334 26.0777 25.5627 27.3606 24.0001 27.3606ZM24.0001 21.976C22.6214 21.976 21.5001 23.1081 21.5001 24.5C21.5001 25.8919 22.6214 27.024 24.0001 27.024C25.3787 27.024 26.5001 25.8919 26.5001 24.5C26.5001 23.1081 25.3787 21.976 24.0001 21.976Z" fill="#843511"/>
<path d="M23.7347 24.1958C23.7347 24.4044 23.3867 24.5727 22.9574 24.5727C22.5267 24.5727 22.1787 24.4044 22.1787 24.1958C22.1787 23.9871 22.5267 23.8188 22.9574 23.8188C23.3867 23.8188 23.7347 23.9871 23.7347 24.1958ZM25.8054 24.1635C25.8054 23.9467 25.4507 23.7704 25.0134 23.7704C24.576 23.7704 24.2214 23.9454 24.2214 24.1635C24.2214 24.3815 24.576 24.5565 25.0134 24.5565C25.452 24.5565 25.8054 24.3802 25.8054 24.1635Z" fill="#C16540"/>
<path d="M23.2839 25.6765C23.2839 25.5069 23.6119 25.3682 24.0146 25.3682C24.4186 25.3682 24.7453 25.5055 24.7453 25.6765C24.7453 25.8461 24.4173 25.9848 24.0146 25.9848C23.6106 25.9848 23.2839 25.8461 23.2839 25.6765Z" fill="#ED8662"/>
<rect x="0.5" y="7.5" width="47" height="34" rx="4.5" stroke="#EAEAEA"/>
</svg>
