<svg width="28" height="28" viewBox="0 0 28 28" fill="none" xmlns="http://www.w3.org/2000/svg">
<g clip-path="url(#clip0_2468_5978)">
<path fill-rule="evenodd" clip-rule="evenodd" d="M5.67444 11.5603C5.67441 10.4453 5.89977 9.34246 6.33627 8.32147C6.77278 7.30047 7.41094 6.38353 8.21041 5.62861C9.00987 4.87369 9.95326 4.29721 10.9809 3.93563C12.0086 3.57404 13.0982 3.43521 14.1808 3.52791C14.3293 3.53796 14.4744 3.57826 14.6076 3.64644C14.7408 3.71463 14.8595 3.80934 14.9567 3.92506C15.0539 4.04079 15.1277 4.1752 15.1738 4.32048C15.2198 4.46576 15.2373 4.619 15.2251 4.77127C15.2128 4.92353 15.1712 5.07178 15.1026 5.20738C15.0341 5.34298 14.9398 5.46321 14.8255 5.56107C14.7112 5.65892 14.5791 5.73246 14.4368 5.77737C14.2945 5.82229 14.1449 5.8377 13.9968 5.8227C13.2233 5.7561 12.4447 5.85498 11.7103 6.1131C10.976 6.37121 10.3018 6.78293 9.73047 7.32222C9.15914 7.8615 8.70308 8.51662 8.39114 9.24611C8.07921 9.97561 7.91819 10.7636 7.91826 11.5603V15.6225C7.91823 16.1589 7.79646 16.688 7.56262 17.1677L6.36778 19.6202H20.6878L19.493 17.1677C19.2592 16.6879 19.1374 16.1589 19.1374 15.6225V13.8631C19.1374 13.5577 19.2556 13.2649 19.466 13.0489C19.6764 12.833 19.9617 12.7117 20.2593 12.7117C20.5568 12.7117 20.8422 12.833 21.0526 13.0489C21.263 13.2649 21.3812 13.5577 21.3812 13.8631V15.6225C21.381 15.8011 21.4213 15.9773 21.499 16.1372L23.4253 20.09C23.5194 20.2831 23.5638 20.4977 23.5544 20.7134C23.5449 20.9291 23.4819 21.1388 23.3713 21.3224C23.2607 21.5061 23.1061 21.6577 22.9224 21.7628C22.7386 21.868 22.5317 21.9231 22.3213 21.9231H17.8741C17.6245 22.9113 17.0623 23.7865 16.2757 24.4112C15.489 25.036 14.5225 25.375 13.5278 25.375C12.5331 25.375 11.5666 25.036 10.78 24.4112C9.99332 23.7865 9.43109 22.9113 9.18153 21.9231H4.73428C4.5239 21.9231 4.317 21.868 4.13324 21.7628C3.94948 21.6577 3.79495 21.5061 3.68434 21.3224C3.57373 21.1388 3.5107 20.9291 3.50125 20.7134C3.49179 20.4977 3.53623 20.2831 3.63032 20.09L5.55552 16.1372C5.63354 15.9774 5.67426 15.8012 5.67444 15.6225V11.5603ZM11.5847 21.9231C11.7816 22.2731 12.0649 22.5638 12.406 22.7659C12.747 22.968 13.134 23.0744 13.5278 23.0744C13.9217 23.0744 14.3086 22.968 14.6497 22.7659C14.9908 22.5638 15.274 22.2731 15.471 21.9231H11.5847ZM19.6983 5.80313C19.4773 5.80313 19.2585 5.8478 19.0543 5.9346C18.8501 6.02139 18.6646 6.14861 18.5084 6.30899C18.3521 6.46937 18.2281 6.65977 18.1436 6.86932C18.059 7.07886 18.0155 7.30345 18.0155 7.53026C18.0155 7.75708 18.059 7.98167 18.1436 8.19121C18.2281 8.40076 18.3521 8.59116 18.5084 8.75154C18.6646 8.91192 18.8501 9.03914 19.0543 9.12593C19.2585 9.21273 19.4773 9.2574 19.6983 9.2574C20.1446 9.2574 20.5727 9.07544 20.8883 8.75154C21.2039 8.42763 21.3812 7.98833 21.3812 7.53026C21.3812 7.0722 21.2039 6.63289 20.8883 6.30899C20.5727 5.98509 20.1446 5.80313 19.6983 5.80313ZM15.7716 7.53026C15.7716 6.46144 16.1853 5.4364 16.9217 4.68063C17.6581 3.92486 18.6569 3.50027 19.6983 3.50027C20.7397 3.50027 21.7385 3.92486 22.4749 4.68063C23.2113 5.4364 23.625 6.46144 23.625 7.53026C23.625 8.59908 23.2113 9.62413 22.4749 10.3799C21.7385 11.1357 20.7397 11.5603 19.6983 11.5603C18.6569 11.5603 17.6581 11.1357 16.9217 10.3799C16.1853 9.62413 15.7716 8.59908 15.7716 7.53026Z" fill="#6A6A6E"/>
</g>
<defs>
<clipPath id="clip0_2468_5978">
<rect width="28" height="28" fill="white"/>
</clipPath>
</defs>
</svg>
