<svg width="32" height="32" viewBox="0 0 32 32" fill="none" xmlns="http://www.w3.org/2000/svg">
<path fill-rule="evenodd" clip-rule="evenodd" d="M16 29C23.1799 29 29 23.1799 29 16C29 8.8201 23.1799 3 16 3C8.8201 3 3 8.8201 3 16C3 23.1799 8.8201 29 16 29ZM12.061 11.7841C11.9752 11.4518 11.7616 11.1669 11.4666 10.9916C11.1716 10.8162 10.8192 10.7646 10.4863 10.848C10.1535 10.9314 9.86705 11.143 9.68958 11.4367C9.51212 11.7304 9.45799 12.0824 9.539 12.4159L9.786 13.4H9.5C9.15522 13.4 8.82456 13.537 8.58076 13.7808C8.33696 14.0246 8.2 14.3552 8.2 14.7C8.2 15.0448 8.33696 15.3754 8.58076 15.6192C8.82456 15.863 9.15522 16 9.5 16H10.436L10.761 17.3H9.5C9.15522 17.3 8.82456 17.437 8.58076 17.6808C8.33696 17.9246 8.2 18.2552 8.2 18.6C8.2 18.9448 8.33696 19.2754 8.58076 19.5192C8.82456 19.763 9.15522 19.9 9.5 19.9H11.411L12.0311 22.383C12.3769 23.7701 14.3217 23.8455 14.7741 22.487L16 18.8106L17.2259 22.487C17.6783 23.8455 19.6231 23.7701 19.9689 22.383L20.5903 19.9H22.5C22.8448 19.9 23.1754 19.763 23.4192 19.5192C23.663 19.2754 23.8 18.9448 23.8 18.6C23.8 18.2552 23.663 17.9246 23.4192 17.6808C23.1754 17.437 22.8448 17.3 22.5 17.3H21.239L21.564 16H22.5C22.8448 16 23.1754 15.863 23.4192 15.6192C23.663 15.3754 23.8 15.0448 23.8 14.7C23.8 14.3552 23.663 14.0246 23.4192 13.7808C23.1754 13.537 22.8448 13.4 22.5 13.4H22.214L22.461 12.4159C22.5039 12.2498 22.5134 12.0769 22.4892 11.9072C22.4649 11.7374 22.4073 11.5741 22.3197 11.4267C22.2321 11.2793 22.1161 11.1506 21.9786 11.0482C21.841 10.9458 21.6845 10.8716 21.5182 10.83C21.3518 10.7883 21.1788 10.7799 21.0092 10.8054C20.8396 10.8309 20.6768 10.8896 20.53 10.9783C20.3832 11.067 20.2554 11.1839 20.154 11.3222C20.0525 11.4605 19.9795 11.6174 19.939 11.7841L18.4219 17.8538L17.2337 14.2892C17.1476 14.0301 16.9821 13.8046 16.7607 13.6448C16.5392 13.485 16.2731 13.3991 16 13.3991C15.7269 13.3991 15.4608 13.485 15.2393 13.6448C15.0179 13.8046 14.8524 14.0301 14.7663 14.2892L13.5781 17.8538L12.061 11.7841Z" fill="#0B0B0B"/>
</svg>
