<svg width="16" height="16" viewBox="0 0 16 16" fill="none" xmlns="http://www.w3.org/2000/svg">
<path d="M9.25 10.9502C9.46217 10.9502 9.6654 11.0345 9.81543 11.1846C9.96546 11.3346 10.0498 11.5378 10.0498 11.75C10.0498 11.9622 9.96546 12.1654 9.81543 12.3154C9.6654 12.4655 9.46217 12.5498 9.25 12.5498H2.75C2.53783 12.5498 2.3346 12.4655 2.18457 12.3154C2.03454 12.1654 1.9502 11.9622 1.9502 11.75C1.9502 11.5378 2.03454 11.3346 2.18457 11.1846C2.3346 11.0345 2.53783 10.9502 2.75 10.9502H9.25ZM13.25 6.9502C13.4622 6.9502 13.6654 7.03454 13.8154 7.18457C13.9655 7.3346 14.0498 7.53783 14.0498 7.75C14.0498 7.96217 13.9655 8.1654 13.8154 8.31543C13.6654 8.46546 13.4622 8.5498 13.25 8.5498H2.75C2.53783 8.5498 2.3346 8.46546 2.18457 8.31543C2.03454 8.1654 1.9502 7.96217 1.9502 7.75C1.9502 7.53783 2.03454 7.3346 2.18457 7.18457C2.3346 7.03454 2.53783 6.9502 2.75 6.9502H13.25ZM10.25 2.9502C10.4622 2.9502 10.6654 3.03454 10.8154 3.18457C10.9655 3.3346 11.0498 3.53783 11.0498 3.75C11.0498 3.96217 10.9655 4.1654 10.8154 4.31543C10.6654 4.46546 10.4622 4.5498 10.25 4.5498H2.75C2.53783 4.5498 2.3346 4.46546 2.18457 4.31543C2.03454 4.1654 1.9502 3.96217 1.9502 3.75C1.9502 3.53783 2.03454 3.3346 2.18457 3.18457C2.3346 3.03454 2.53783 2.9502 2.75 2.9502H10.25Z" fill="#7AB5DC" stroke="#7AB5DC" stroke-width="0.1"/>
</svg>
