<svg width="32" height="32" viewBox="0 0 32 32" fill="none" xmlns="http://www.w3.org/2000/svg">
<path d="M16 2.90039C8.76575 2.90039 2.90039 8.76575 2.90039 16C2.90039 23.2342 8.76575 29.0996 16 29.0996C23.2342 29.0996 29.0996 23.2342 29.0996 16C29.0996 8.76575 23.2342 2.90039 16 2.90039ZM16 5.30566C21.905 5.30566 26.6943 10.095 26.6943 16C26.6943 21.905 21.905 26.6943 16 26.6943C10.095 26.6943 5.30566 21.905 5.30566 16C5.30566 10.095 10.095 5.30566 16 5.30566Z" fill="#0B0B0B" stroke="#0B0B0B" stroke-width="0.2"/>
<path d="M15.3042 14.043C15.1213 14.043 14.9712 14.1921 14.9712 14.375V22.2676C14.9712 22.4505 15.1213 22.5996 15.3042 22.5996H16.6968C16.8796 22.5995 17.0288 22.4504 17.0288 22.2676V14.375C17.0288 14.1921 16.8796 14.043 16.6968 14.043H15.3042ZM16.0005 9.40039C15.6047 9.40039 15.2248 9.55712 14.9448 9.83691C14.6649 10.1168 14.5074 10.4967 14.5073 10.8926C14.5073 11.2885 14.6649 11.6683 14.9448 11.9482C15.2248 12.2282 15.6046 12.3857 16.0005 12.3857C16.3963 12.3857 16.7763 12.2281 17.0562 11.9482C17.3359 11.6683 17.4927 11.2884 17.4927 10.8926C17.4926 10.4967 17.3361 10.1168 17.0562 9.83691C16.7763 9.55701 16.3963 9.40046 16.0005 9.40039Z" fill="#0B0B0B" stroke="#0B0B0B" stroke-width="0.2"/>
</svg>
