<svg width="32" height="32" viewBox="0 0 32 32" fill="none" xmlns="http://www.w3.org/2000/svg">
<path d="M11.021 3.988C12.6006 3.33793 14.2919 3.00233 16 3C17.703 3 19.393 3.338 20.979 3.988C22.552 4.638 23.982 5.6 25.191 6.809C26.4 8.018 27.362 9.448 28.012 11.021C28.662 12.607 29 14.297 29 16C29 19.445 27.635 22.76 25.191 25.191C23.9854 26.4 22.5528 27.3588 20.9755 28.0125C19.3983 28.6662 17.7074 29.0018 16 29C14.2919 28.9977 12.6006 28.6621 11.021 28.012C9.44549 27.3572 8.01428 26.3986 6.80901 25.191C5.60003 23.9854 4.64117 22.5528 3.9875 20.9755C3.33383 19.3982 2.99824 17.7074 3.00001 16C3.00001 12.555 4.36501 9.24 6.80901 6.809C8.018 5.6 9.448 4.638 11.021 3.988ZM16 22.5L18.028 18.054L22.5 16L18.028 13.972L16 9.5L13.959 13.972L9.5 16L13.959 18.054L16 22.5Z" fill="#0B0B0B"/>
</svg>
