<svg width="48" height="48" viewBox="0 0 48 48" fill="none" xmlns="http://www.w3.org/2000/svg">
<path d="M42.6667 7H5.33334C5.06001 7 4.79067 7.02019 4.52801 7.06058L4.52267 9.42173L0.882672 9.41635C0.305535 10.2965 -0.00150939 11.3291 5.57923e-06 12.3846V36.6154C5.57923e-06 38.0435 0.561909 39.4131 1.5621 40.4229C2.5623 41.4327 3.91885 42 5.33334 42H42.6667C44.0812 42 45.4377 41.4327 46.4379 40.4229C47.4381 39.4131 48 38.0435 48 36.6154V12.3846C48 10.9565 47.4381 9.58693 46.4379 8.57712C45.4377 7.56731 44.0812 7 42.6667 7Z" fill="#00247D"/>
<path d="M12.0002 35.3002L10.3709 36.82L10.5322 34.5854L8.33887 34.2475L10.1695 32.9821L9.0642 31.0396L11.1855 31.6965L12.0002 29.6113L12.8162 31.6965L14.9375 31.0396L13.8309 32.9821L15.6629 34.2475L13.4695 34.5854L13.6309 36.82L12.0002 35.3002ZM37.2669 13.1412L36.2015 14.1346L36.3069 12.6727L34.8709 12.4519L36.0695 11.624L35.3469 10.3533L36.7335 10.7827L37.2669 9.41904L37.8015 10.7827L39.1895 10.3533L38.4655 11.624L39.6629 12.4519L38.2282 12.6727L38.3335 14.1346L37.2669 13.1412ZM31.9335 21.2181L30.8682 22.2129L30.9735 20.751L29.5375 20.5302L30.7362 19.701L30.0135 18.4302L31.4002 18.8596L31.9335 17.496L32.4682 18.8596L33.8562 18.4302L33.1322 19.701L34.3295 20.5302L32.8949 20.751L33.0002 22.2129L31.9335 21.2181ZM43.9335 18.5258L42.8682 19.5206L42.9735 18.0587L41.5375 17.8379L42.7362 17.0087L42.0135 15.7379L43.4002 16.1673L43.9335 14.8037L44.4682 16.1673L45.8562 15.7379L45.1322 17.0087L46.3295 17.8379L44.8949 18.0587L45.0002 19.5206L43.9335 18.5258ZM37.2669 37.3719L36.2015 38.3667L36.3069 36.9048L34.8709 36.684L36.0695 35.8548L35.3469 34.584L36.7335 35.0135L37.2669 33.6498L37.8015 35.0135L39.1895 34.584L38.4655 35.8548L39.6629 36.684L38.2282 36.9048L38.3335 38.3667L37.2669 37.3719ZM41.3335 21.8077L41.7255 22.61L42.6015 22.7379L41.9682 23.3612L42.1175 24.2429L41.3335 23.8269L40.5495 24.2429L40.6989 23.3612L40.0655 22.7379L40.9415 22.61L41.3335 21.8077Z" fill="white"/>
<path d="M25.3333 24.5V7H5.33334C4.90667 7 4.528 7.06058 4.528 7.06058L4.52267 9.42173L0.882671 9.41635C0.882671 9.41635 0.826671 9.49577 0.713337 9.69231C0.244955 10.5107 -0.00111526 11.4394 3.7999e-06 12.3846V24.5H25.3333Z" fill="#00247D"/>
<path d="M25.3333 7H22.2253L16 11.4006V7H9.33333V10.4583L4.528 7.06058C3.72647 7.18146 2.96348 7.48784 2.29867 7.95577L8.568 12.3846H6.25333L1.28933 8.8725C1.14294 9.04526 1.00714 9.22688 0.882667 9.41635L5.084 12.3846H0V19.1154H5.18L0 22.8388V24.5H4.44267L9.33333 21.0431V24.5H16V20.0994L22.224 24.5H25.3333V21.7687L21.58 19.1154H25.3333V12.3846H21.5813L25.3333 9.73135V7Z" fill="white"/>
<path d="M14.6667 7H10.6667V13.7308H0V17.7692H10.6667V24.5H14.6667V17.7692H25.3333V13.7308H14.6667V7Z" fill="#CF1B2B"/>
<path d="M25.3332 7H23.3852L15.9998 12.2217V12.3846H18.0945L25.3332 7.26654V7ZM2.29852 7.95577C1.92523 8.21728 1.58611 8.52529 1.28918 8.8725L6.25318 12.3846H8.56652L2.29852 7.95577ZM8.58252 19.1154L0.978516 24.5H3.28118L9.33318 20.2219V19.1154H8.58252ZM25.3332 24.2335V22.5912L20.4172 19.1154H18.0932L25.3332 24.2335Z" fill="#CF1B2B"/>
<rect x="0.5" y="7.5" width="47" height="34" rx="4.5" stroke="#EAEAEA"/>
</svg>
